<svg id="visual" viewBox="0 0 1080 600" width="1080" height="600" xmlns="http://www.w3.org/2000/svg" xmlns:xlink="http://www.w3.org/1999/xlink" version="1.1"><rect x="0" y="0" width="1080" height="600" fill="#0017ff"></rect><defs><linearGradient id="grad1_0" x1="44.4%" y1="0%" x2="100%" y2="100%"><stop offset="13.999999999999998%" stop-color="#0017ff" stop-opacity="1"></stop><stop offset="86%" stop-color="#0017ff" stop-opacity="1"></stop></linearGradient></defs><defs><linearGradient id="grad2_0" x1="0%" y1="0%" x2="55.6%" y2="100%"><stop offset="13.999999999999998%" stop-color="#0017ff" stop-opacity="1"></stop><stop offset="86%" stop-color="#0017ff" stop-opacity="1"></stop></linearGradient></defs><g transform="translate(1080, 0)"><path d="M0 360C-29.9 356.2 -59.7 352.4 -93.2 347.7C-126.6 343.1 -163.7 337.5 -179 310C-194.3 282.5 -188 233 -210.7 210.7C-233.5 188.4 -285.4 193.2 -303.1 175C-320.8 156.8 -304.3 115.6 -308.1 82.6C-311.9 49.6 -336 24.8 -360 0L0 0Z" fill="#FBAE3C"></path></g><g transform="translate(0, 600)"><path d="M0 -360C27.3 -342.8 54.7 -325.5 84.9 -316.8C115.1 -308.1 148.1 -308 167 -289.3C185.9 -270.5 190.6 -233.3 214.3 -214.3C238 -195.2 280.7 -194.4 306.6 -177C332.5 -159.6 341.6 -125.5 347.7 -93.2C353.8 -60.9 356.9 -30.4 360 0L0 0Z" fill="#FBAE3C"></path></g></svg>